<svg t="1587969485239" class="icon" viewBox="0 0 1024 1024" version="1.1" xmlns="http://www.w3.org/2000/svg" p-id="2388" width="200" height="200"><path d="M85 170.7c0-47.1 38.2-85.3 85.3-85.3H853c47.1 0 85.3 38.2 85.3 85.3v768c0 47.1-38.2 85.3-85.3 85.3H170.3c-47.1 0-85.3-38.2-85.3-85.3v-768z" fill="#666666" p-id="2389"></path><path d="M127.7 170.7c0-23.6 19.1-42.7 42.7-42.7H853c23.6 0 42.7 19.1 42.7 42.7v768c0 23.6-19.1 42.7-42.7 42.7H170.3c-23.6 0-42.7-19.1-42.7-42.7v-768h0.1z" fill="#F5F5F5" p-id="2390"></path><path d="M341 0h384v256H298.3v-256z" fill="#666666" p-id="2391"></path><path d="M341 42.7h341.3V213.3H341z" fill="#FFB095" p-id="2392"></path></svg>